<?xml version="1.0" encoding="utf-8"?>
<!-- Generator: Adobe Illustrator 19.0.0, SVG Export Plug-In . SVG Version: 6.00 Build 0)  -->
<svg version="1.1" id="Layer_1" xmlns="http://www.w3.org/2000/svg" xmlns:xlink="http://www.w3.org/1999/xlink" x="0px" y="0px"
	 viewBox="0 0 217.1 250" style="enable-background:new 0 0 217.1 250;" xml:space="preserve">
<style type="text/css">
	.st0{fill-rule:evenodd;clip-rule:evenodd;fill:#2E2E2F;}
	.st1{fill-rule:evenodd;clip-rule:evenodd;fill:#EE3433;}
	.st2{fill-rule:evenodd;clip-rule:evenodd;fill:#FFFFFF;}
	.st3{fill-rule:evenodd;clip-rule:evenodd;fill:#54A275;}
	.st4{fill-rule:evenodd;clip-rule:evenodd;fill:#F16679;}
	.st5{fill:none;stroke:#4CAF55;stroke-width:0.36;stroke-linecap:square;stroke-miterlimit:11.4737;}
	.st6{fill-rule:evenodd;clip-rule:evenodd;fill:#ED1C24;}
</style>
<g>
	<path class="st0" d="M30.5,184.2c-9.3-3.5-7.8-12-4.6-18.5c-2.3-2.8-1.3-5.7,4.3-8.9c-7.9-3.4-13,13.6-13.7,19.8
		c0,2.2,1.7,5.3,3.9,6.1l-0.3,0.4c9.4,6.5,14.2,4,13.4,17.8c-42.5,5.1-18.3,7.2-27.7,18.5l-0.2,0c-0.2,0.3-0.4,0.6-0.7,0.9
		c-4,4.3-7.6,8.6-1.8,13.4c2.1,1.8,5,2.7,7.8,2.7c2.2,0,3.8-1.1,5.9-1.8c3.3-1.1,5.7-2.5,8.6-4.5c1.6-1.1,3.1-2.2,4.5-3.4
		c0.6-0.6,1.3-1.1,1.8-1.7c0.1-0.2,0.2-0.3,0.3-0.4c0.1-1,0.5-1.8,1-2.4c2.3-12.2,7.5-3.8,20.2,1.6c5.8,0.6,38.9,2.6,37.8-4.4
		c12.1,3,34.9,13,48.7-1.5c-0.2-0.8-15.4-16.9-36.3-29c-17.5-4.3-37.7-8.4-53.2-12.7C43.5,177.4,36.9,179.9,30.5,184.2z"/>
	<path class="st0" d="M25.9,165.7c3.1,3.8,12.4,7.2,24.4,10.5c18.5-3.3,37.5,3.6,53.2,12.7c21.4,5.3,39,10.9,39.6,17.7l-1.4,6.7
		c-9.6,4.8,10.7,10.8,13.3,13.8c1.1,9.5,11.3,13.8,14.9,18.7c0.7,0.2,1.5,0.6,2.1,1.3c1.3,1.3,4.5,1.8,6.2,2.4
		c2.4,0.8,4,1.2,5.8-0.8c1.5-1.7,2-3.9,2.1-6.3l-8.5-14.2l0.4-0.4c-6.5-16.8-6.4-13.2-23.4-20.1l0.4-4c9-6,16.2-19.1,25.9-16.2
		c7.6,1.9,25.9,10.2,32.4,10.2l1.4-1.5c-1.7-10.8-15.2-15.3-23-23c-10.9-20.9,17.9-44.4,25.6-60.7c-3.5-1.6-39.7,39.7-62.3,57
		c1.9-9.2-22.7-13.1-24.5-42.3l-1.5-26.6c12.1-14.4,11.6-25.6,8-44.7c-1.4,2.7-0.5,6-2.9,6L129.3,50l-6.5-7
		c0.2-1.4-4.1-30.1-12.2-24.7c4.4,7.7,9.4,25.6-0.4,27.2c-2.7,4-12,21.2-12.2,21c1.5-10,1.2-20.2-4.7-26.6c2.6-7.2,2-4.3,3.2-15
		l-1.4,1.4c-3,15-14.8,21.2-24.6,33.8L66,74.8l-1.4,0.4c0.7-9.4,9.7-30.2,9-30C63.5,56.8,60.4,68.6,62.4,80.2
		c7.8,17.2-12.5,28.8-15.9,50.6l-4.8,11.7c-2.5,2.6-8.6,10.2-8.6,12.7c-1.1,0.5-2.1,1-3,1.6c0.5,0.2,1,0.5,1.4,0.8
		C30.8,157.9,28,161.3,25.9,165.7z"/>
	<polygon class="st1" points="199.4,215.8 200.9,215.8 200.1,215.8 199.4,215.8 	"/>
	<path class="st0" d="M63.8,211.2V209l1.1-1.4l3.2-0.4c0.4,0.4,0.4,0.4,0.4,0.4l0.3,1.8c-0.3,0.3-0.3,0.3-0.3,0.3l-4,1.5H63.8
		L63.8,211.2z"/>
	<polygon class="st0" points="93.3,191 93.7,187 95.1,185.2 97.3,184.5 98.7,184.2 100.1,186.3 99.4,188.1 96.9,190.6 94,191 
		93.3,191 	"/>
	<path class="st0" d="M105.5,189.6L105.5,189.6l-0.7-2.2l2.2-2.4h3.2c0.4,0.3,0.4,0.3,0.4,0.3l-0.7,3.6l-1.1,0.8h-2.5H105.5
		L105.5,189.6z"/>
	<path class="st2" d="M71,160l-1.5-0.3l1.1-10.5l14.4-41l1.1-2.4h1.2c2.1,8.3,0.3,18,1.8,26.6l-0.4,5.8l2.5,19.8
		c-0.3,0.3-0.3,0.3-0.3,0.3l-1.1,1.5H76l-4.3,0.3H71L71,160z"/>
	<path class="st2" d="M110.6,159.7H98c-0.4-0.4-0.4-0.4-0.4-0.4c-1.4-15.1,7.2-29.4,9.4-44.5l1.1,0.3l1,13.7l2.2,25.1l1.7,2.2
		c0.4,0,0.4,0,0.4,0l2.1,0.3l1.8-2.5l0.4-6.5l6.8-27.9l1.5-1.5c1,12.3,2.5,25.8,1.8,38.4l-1.1,2.2l-15.5,1.2H110.6L110.6,159.7z"/>
	<path class="st2" d="M41.5,159.3l0.3-7.9l2.2-8.6c3.9-13.3,8.3-26.2,15.1-39.5c0.4-0.8,0.4-0.8,0.4-0.8c0.7-0.3,0.7-0.3,0.7-0.3
		l0.7,2.1l0.4,5.1l0.3,1.4c-1.8,15.1-1.1,30.2-1.4,45.4c-0.4,0.6-0.4,0.6-0.4,0.6l-1.1,1.4l-16.5,1.5L41.5,159.3L41.5,159.3z"/>
	<path class="st3" d="M98,67.1c-0.9-9.4,1-20.5-8.1-26.6c6.6-6,8.6-30.8,24.8-18.6c6.2,29-2.9,14.8-12.5,37.5l-2.9,4.2v3.9h-0.6
		L98,67.1L98,67.1z"/>
	<path class="st3" d="M115.5,222.2c-5.9-1.1-13.1-2.4-18.1-5.6l-0.6-2.9c-25.2,0.9-57.3,21.2-58.3-21.6c11.4-8,24.3-5.4,37.4-4.3
		c0-0.8,0-1.5,0-2.2c-5.8-4.8-40.7-4.2-47.5-1.8c-1.4,0-6.7-3.2-8.3-4c-0.3-7.6,0.7-22.8,11.2-22.8l3.5,4.1c-3.3,3.3-4.8,2-6.2,6.9
		c31.5-9.2,65.4-2.7,98.1-4.7l0.3,0.6c3.9,0,7.8,1.4,11.6,2.2c0-0.7,0.6-2.1,0.7-2.9l-6.1-4.8l0.7-7.2c10.1,5.4,17.4,11.1,19.4,23.4
		c-11.2,11.3-22.1,10.2-37.1,10.2c-6.2,6.5,28.5,4.8,31.7,9c0.4,7.2-5.2,16.3-8.6,23C132.7,218.7,121.9,221.8,115.5,222.2
		L115.5,222.2z"/>
	<path class="st3" d="M158.1,182.7c-0.6-8.8,0.9-12.2,9.6-14.4l1.9,4.5l5.7,10.6c-8.1,4-7.1,3.5-14.6,2.9h-0.5L158.1,182.7
		L158.1,182.7z"/>
	<path class="st3" d="M65.9,138.1l-0.7-9.4l2.2-11.9c1.1-2.5,4.7-5,4.3-7.5l1.1-2.5l1.4-4.4l0.4-2.1l4.3-3.6l4.7-1.2
		c3.9-2.4,8.6-7.8,10.4-11.4l1.1-1.5h1.2L95.8,86l1.8,9.9l3.3,2.7l3.2,3.6l0.4,3.6l-3.3,2.9c-0.3,0.3-0.3,0.3-0.3,0.3l-5.8,23.4
		l-1.4,0.7c-1.1-2.8-1.1-5.7-0.8-8.6v-2.2c0-0.3,0-0.3,0-0.3l0.4-7.9l-0.4-7.2l-0.3-1.5l-1.5-7.9c-0.3-0.4-0.3-0.4-0.3-0.4l-4-1.2
		l-2.9,3.6l-0.3,2.2l-1.1,3.3l-1.8,1.4l-3.2,0.4l-4,9.3c-1.4,7.2-5.8,14.8-6.1,22H65.9L65.9,138.1z"/>
	<path class="st3" d="M114.4,119c-1.4-2.2-2.1-5-1.4-7.6l-1.4-7.2c0.3-0.3,0.3-0.3,0.3-0.3l2.2-1.5l2.9,0.8c0.3,0.3,0.3,0.3,0.3,0.3
		c2.5,1.8,2.5,3.3,3,5.1l-1.8,1.4l-2.2,1.4l-0.7,8L114.4,119L114.4,119z"/>
	<path class="st2" d="M66.7,107.6L66.7,107.6c-0.8-0.4-0.8-0.4-0.8-0.4c-0.3-1.1-0.3-1.1-0.3-1.1l0.7-9.7c0.4,0,0.4,0,0.4,0l4.3,3.2
		l-3.6,8.1H66.7L66.7,107.6z"/>
	<path class="st2" d="M110.9,98.6L110.9,98.6l-4.3-2.2l-4.7-4.7l-0.7-5.7c1.5-12.3,0-24.5,10.1-36.9c4.7-1.4,8.3-2.4,12.5,1.5
		l3.2,3.6l2.2,10.1v21.9l4.2-6.1c0.7,0,0.7,0,0.7,0c1.1,0,1.1,0,1.1,0c0,5.4-0.7,10.8-7.2,15.8c-0.6,0.4-0.6,0.4-0.6,0.4l-2.2,0.4
		l2.9-8.1l-3.9,3.3l-2.9,2.5l-7.9,3.6l-1.8,0.4H110.9L110.9,98.6z"/>
	<path class="st2" d="M77.5,91.7c-5.8-0.3-8-7.5-9.8-12c-0.3-11.1,1.8-25.2,15.2-33.3l3.2-1.5c0.4,0,0.4,0,0.4,0l2.1-0.3
		c2.9,1.4,2.9,4.2,3.6,6.3c1.5,13,4.3,27-7.5,38.7L78.2,92L77.5,91.7L77.5,91.7z"/>
	<path class="st0" d="M81.8,79.1L80,77.3l1.4-4.8c0.4-0.3,0.4-0.3,0.4-0.3l1.4-2.2l2.9-0.3c0.4,0.3,0.4,0.3,0.4,0.3l0.7,6l-4.7,3.3
		L81.8,79.1L81.8,79.1z"/>
	<path class="st0" d="M109.9,73h-1.1c-0.4-0.4-0.4-0.4-0.4-0.4c-1.1-2.7-0.3-5.4,1.5-7.8l2.7-0.3l1.8,1.4c1.1,2.2-0.3,4.3-2.1,6.5
		l-1.7,1.1L109.9,73L109.9,73z"/>
	<path class="st0" d="M147.6,0.5C147.6,0.5,147.6,0.5,147.6,0.5c-2,0.1-3.9-0.1-6.1-0.3c-3.8-0.5-7.4,0-11.1,0.4
		c0.1,0.1,0.1,0.2,0.2,0.3c-14.5,0-18.5,8.1-25.7,16.6l0.4,0.9c2.1,0.4,5,1.2,7.1,1.2c5-14.1,6.1-13,20.7-14.4
		c-4,2.9-11.4,5.8-11.4,11.4l3.9,3.3l-3.1,3v1.8c2,1.9,3.8,2.7,5.3,4.2l0.1,1.5l-2.3,5.1h0.7l4.3-1.8c0,0,0,0,0.4-0.4
		c0.9-8.3-1-8.4,5-12.6c0-3-3.6-3.8-6.1-5.4c1.6-8.6,17.9-5.7,24.2-6.5l1.8-4.3l-2.2-1.8L147.6,0.5z"/>
	<polygon class="st4" points="159.1,-55.6 159.1,-55.6 159.9,-55.6 159.1,-55.6 	"/>
	<line class="st5" x1="89" y1="131.6" x2="89" y2="128.5"/>
	<path class="st6" d="M8.3,233.1c-10.2-4.7-4-8.9,2.2-17.6c0-23.5,37.1,6.5-1.4,17.6H8.3L8.3,233.1z"/>
	<path class="st6" d="M199.8,189.9c-5.8-3.2-14.8-7.2-22.3-6.1c-4-1.8-5.4-4.7-7.2-7.6l-1.4-3.2v-6.8l7.9-11.2l10.5-10.1l1.8-2.5
		l5.7-6l0.8-1.4h1l-3.6,8.6l-4.3,5.4c0,8.3-6.5,15.8-4.3,23.7c4.7,6.9,11.5,10.5,17.3,15.2l1.4,1c0,0.4,0,0.4,0,0.4l-2.5,0.7H199.8
		L199.8,189.9z"/>
	<path class="st1" d="M121.1,36.2c-1.5-10.8-0.7-9.4-8.6-17.3c2.9-14,6.6-12.8,20.3-14.4c-2.5,4-8.3,5-10.8,10.1l1.1,3.2l2.5,2.2
		l-2.5,2.5c0,0.9,0,1.9,0,2.9c4.7,1.7,4,0.9,5.7,5.4C127.8,33,123.9,37.3,121.1,36.2L121.1,36.2z"/>
	<path class="st6" d="M176,244.6c-3.8-0.3-7.4-4.6-10.7-7.9c-0.7-0.3-0.7-0.3-0.7-0.3c-5.8-1.8-5.8-7.2-6.1-10.8
		c-2.9-6.5-8.3-6.9-12.3-7.2l-4.6-4.7l0.7-3.6l1.1-1.2l5.4,0.7l1.8,2.2l1.4,1.4c5.8,1.8,16.2-0.7,19.1,7.9l1.1,4.7l3.8,10.5l2.9,4.3
		l0.4,2.4c-0.4,0.4-0.4,0.4-0.4,0.4l-2.2,1H176L176,244.6z"/>
</g>
</svg>
