<?xml version="1.0" encoding="utf-8"?>
<!-- Generator: Adobe Illustrator 19.0.0, SVG Export Plug-In . SVG Version: 6.00 Build 0)  -->
<svg version="1.1" id="Layer_1" xmlns="http://www.w3.org/2000/svg" xmlns:xlink="http://www.w3.org/1999/xlink" x="0px" y="0px"
	 viewBox="0 0 405.4 391.8" style="enable-background:new 0 0 405.4 391.8;" xml:space="preserve">
<style type="text/css">
	.st0{fill-rule:evenodd;clip-rule:evenodd;fill:#2E2E2F;}
	.st1{fill-rule:evenodd;clip-rule:evenodd;fill:#E89995;}
	.st2{fill-rule:evenodd;clip-rule:evenodd;fill:#EE3433;}
	.st3{fill-rule:evenodd;clip-rule:evenodd;fill:#FFFFFF;}
	.st4{fill-rule:evenodd;clip-rule:evenodd;fill:#54A275;}
	.st5{fill-rule:evenodd;clip-rule:evenodd;fill:#F16679;}
	.st6{fill:none;stroke:#4CAF55;stroke-width:0.36;stroke-linecap:square;stroke-miterlimit:11.4737;}
	.st7{fill-rule:evenodd;clip-rule:evenodd;fill:#ED1C24;}
	.st8{fill-rule:evenodd;clip-rule:evenodd;fill:#E89995;stroke:#000000;stroke-width:0.22;stroke-miterlimit:11.4737;}
</style>
<g>
	<path class="st0" d="M108.8,371.7c-15.7-10.7-40.9-20-30.2-41.1l-10.8-2.8c-14.8-7.6-29.6-0.4-44.3-5.1l-1.2-2.9
		c6.3-7.9,12.8-19.9,15.1-29.4l0.7-2.2l4.4-11.9l0.3-1.4l0.4-2.5c0.4,0,0.4,0,0.4,0l54.1,8.2c9.4-11.3-14.8-13.4,27.7-18.5
		c0.9-13.8-4-11.3-13.4-17.8l0.3-0.4c-2.2-0.9-3.9-3.9-3.9-6.1c0.8-6.6,6.5-25.3,15.2-19c-2,0.8-16.6,20.8-1.2,26.6
		c47.7-31.8,108.7,32,109.2,33.7c-13.8,14.5-36.7,4.5-48.7,1.5c1.1,7-32,5-37.8,4.4c-14.1-6.1-18.9-15.9-20.9,3.6
		c10.9,10.2,31.2-3.5,25.8,28.8c42.3,9.9,73,11.5,112.9-7.2c0-6.6-14.9-10.5-16.2-22c-2.7-2.9-22.9-9-13.3-13.8l1.4-6.7
		c-1.8-20.3-155.4-30.1-109.7-51.3c0-2.5,6.1-10.1,8.6-12.7l4.8-11.7c3.4-21.8,23.7-33.4,15.9-50.6c-2.1-11.5,1.1-23.4,11.2-34.9
		c0.7-0.3-8.3,20.6-9,30l1.4-0.4l4.4-14.8c9.8-12.5,21.6-18.8,24.6-33.8l1.4-1.4c-1.2,10.8-0.6,7.9-3.2,15
		c5.9,6.5,6.2,16.6,4.7,26.6c0.2,0.3,9.4-16.9,12.2-21c9.7-1.6,4.7-19.5,0.4-27.2c8.1-5.4,12.5,23.3,12.2,24.7l6.5,7L226,123
		c2.4,0,1.4-3.3,2.9-6c3.6,19.1,4.1,30.3-8,44.7l1.5,26.6c1.8,29.2,26.4,33.1,24.5,42.3c22.5-17.4,58.8-58.6,62.3-57
		c-7.6,16.3-36.5,39.8-25.6,60.7c7.8,7.8,21.2,12.2,23,23l-1.4,1.5c-6.5,0-24.8-8.3-32.4-10.2c-9.7-2.9-16.9,10.2-25.9,16.2l-0.4,4
		c17,6.8,16.9,3.2,23.4,20.1l-0.4,0.4l8.6,14.4c16.7-4.4-15.3-6.2,1.1-25.9c22.8-12.5,54.4-7.5,79.2-4.4l9.7,1.1
		c0.4,0.4,0.4,0.4,0.4,0.4l1.4,1.1c0,6.1,0.7,12.2,6.1,18.3l0.7,1.5l14.5,14.4c0.4,0.4,8.3,11.6,4.6,6.5c-9,1-11.8,0.8-27-1.5
		c-8-0.9-14.1-1.9-22-1.4c3.5,21-25.4,39.9-41,49.3C244.9,397.2,170.3,402,108.8,371.7L108.8,371.7z"/>
	<path class="st1" d="M76.5,147.9C65.3,141.3,3,113.8,38.1,92.2C45.9,79.8,67.9,64.9,79.6,56c30.5-25.9,83.8-51.3,125.8-51.3
		c62.4,0,132.6,37.1,164.9,91.1c0.9,4.3,3.8,7.9,5.6,12c4.3,10.7-37.8,37.3-51.1,37.9c-1.9-5.2-4.1-3-1.8-3.4
		c3-6.6,7.3-6.9,2.3-12.9C315,109.1,254.6,78.8,238.2,78l-14.9-2.7l-21.4-3.6c-3.1,0.7-10.5,2.2-13,0.6
		c-45.7,7.1-72.5,24.4-101.2,61.9c-2.6,3.7-8.1,6.8-6.4,12.2c-0.9,0-1.7,0-2.6,0c-0.1,0-0.2-0.1-0.3-0.3
		C78.2,146.4,76.8,147.9,76.5,147.9L76.5,147.9z"/>
	<path class="st0" d="M34.4,169.5c-4.1-3.1-8.3-6.2-12.5-9.4c0-0.3-10.4-15.3-11.4-16.9C8.1,134.8,0,124.5,0,115.8
		c10.5,3,20.9,10.8,31.4,8.7c-2.2-2.6-4.3-5.2-6.6-7.8c-4.4-25.9,38.7-52,56.9-67.5C135.6,9.6,194.6-14.1,261.4,9.3
		c48.3,13.1,94.1,51.9,117,96.1c0,17.9-22.6,22,11.9,26.6c5.1-0.2,10.9-1.7,15.1,1.5c0,6.6-25.8,27.2-35.3,28.4
		c-28.6,18.9-105.7-32.6-70.6-48.2c0.6-0.5,1.1-1,1.8-1.5c-14.7-13.9-47.1-29.5-64.1-32c-1.9-0.7-0.9-1-0.4-2.9
		c19.2,0,104,44.4,89.6,62.3c-2.2,0.7-2.5,0.3-2.9,2.5c0.6,0.5,1.1,1,1.8,1.5c17.9-4.4,45.2-17.5,49.7-35.3
		c-11.7-24.8-24.1-40.2-45-57.3c-46-36.8-105.3-53.8-164.1-40C134.9,21,114.1,33.3,86,52.5c-13.8,11.7-59.2,43.2-56.4,57.1
		c2.4,6,34.1,36.9,50.9,36.9c-0.3-0.3,0.6-0.7,0.2-1c-0.1-1.1-0.3-2.2-0.4-3.3c9.7-10.2,14.4-21,24.8-30.2
		c26.2-25,48.2-33.6,82.5-40c0.4,0.6,0.5,1.4,0.6,2.2c-1.2,0.9-7.3,1.5-9,1.8c-25.8,3.5-62.7,27.6-80.3,48.6
		c28.1,13.2,5.2,29.2-12.9,37.8C74.1,167.1,47.4,169.5,34.4,169.5L34.4,169.5z"/>
	<path class="st1" d="M39.2,165.9l-7.2-5.4l-11.1-15.9l-0.8-0.9l-7.9-14.4l-0.3-2.7c0.3,0,0.3,0,0.3,0c6.1,1.5,11.9,2.7,17.7,2.7H32
		c2.5-0.4,5.8,0,7.6,2.7c1.1,3.3,3.2,6.3,6.5,8.4c1,0.4,1,0.4,1,0.4l1.1,2.1h-2.1v1.2c2.5,2.2,6.4,0.6,9.7,1.1l4.7,3.2v1.8l-0.8-0.6
		l-2.8,0.6l-2.2-0.3l0.7,2.1l1.1,0.4h8.6c0.4,0.4,0.4,0.4,0.4,0.4l1.4,1.8l-1.8,0.3l-2.8,0.6c-0.4,0.4-0.4,0.4-0.4,0.4l-0.4,1.8
		l2.2,0.7l2.2-0.3l6.8-0.9l3.3-0.6c8.2-0.3,16.2-5.7,24.4-9.7c0.8,0,0.8,0,0.8,0l-0.4,1.8c-6.6,4.7-13.7,8.6-20.9,11.9
		c-13.2,6.1-26.6,1.1-39.6,5.8L39.2,165.9L39.2,165.9z"/>
	<path class="st1" d="M353.4,163.7c-20.1-4.8-55.3-15-56.7-40.3c2-5.3,4.1-5.7,10.1-6.5c18.7,17.2-2.1,1.7-8.3,4
		c0,8.4,25.8,36.3,29.5,28.8c12.2-4.9,35.8-15.1,39.5-20.4c27.9,8.9,39.9,3.5,4.7,26.6C368,158,357.1,164.9,353.4,163.7L353.4,163.7
		z"/>
	<path class="st1" d="M144.2,382.5l-5.8-2.8c-9-2.2-17.6-5.4-26.2-10.5l-3.3-1.8l-11.1-8.3l-9.8-6.1l-7.9-7.8
		c-2.9-6.6,2.5-12.6,7.2-19.2l5.8-6.5l14.7-16.5l8-1.1c0.3,0.3,0.3,0.3,0.3,0.3v5.8l6.1,4c6.2,5,14.1,4.6,20.9,8.2l36.4,6.9
		l15.2,1.8l0.7,1.1l1.1,1.1c0.3,0.3,0.3,0.3,0.3,0.3l1.8,0.4c0.4-0.4,0.4-0.4,0.4-0.4c0.3-0.6,0.3-0.6,0.3-0.6l1.5-2.2
		c0.3,0,0.3,0,0.3,0h2.5c9.3,0.8,18.3-0.7,27.7-2.5l6.5-1.4l14.4-5.8l2.1-0.4l2.6-1.4l6.4-1.4l4.7-1.8c2.5-2.9,4.8,0,7.3-1.5
		c0.6,0,0.6,0,0.6,0c7.2-7.2,17.4-9.3,26-13.7l5-2.8c0.4-0.4,0.4-0.4,0.4-0.4l2.5-3.2c0-0.4,0-0.4,0-0.4l-1.1-1.4L303,290
		c-1.8,5.4-7.9,6.8-11.8,8.6l-1.4,0.4l-1.1-1.4l-1.4-1.8c0-0.4,0-0.4,0-0.4c-0.4-0.6-0.4-0.6-0.4-0.6l2.9-1.2
		c0.4,0.4,0.4,0.4,0.4,0.4h1.8l2.9-0.4l4.3-2.9l1.1-0.3l3.9-4.4l1.9-0.3c12.5-2.2,19.8,14,27.4,23.7l5,7.2v2.6l1.1,7.9
		c0,5.4-7.2,9-12,14.8l-4.3,3.7C281.9,384.5,193.3,397.4,144.2,382.5L144.2,382.5z"/>
	<path class="st0" d="M177.8,384.8l-5-1.2c-0.4-0.3-0.4-0.3-0.4-0.3c-0.7-0.4-0.7-0.4-0.7-0.4l-0.3-1.8l0.7-3.2l-4-4.4l-2.1-4.3
		l-0.4-1.8l-5.5-9.3l-2.9-0.4l-2.9,9.4l-1.4,8.6c0.4,0.4,0.4,0.4,0.4,0.4c0.3,0.7,0.3,0.7,0.3,0.7v2.1l-1.4,1.5l-6.5-1.1
		c-0.4-0.4-0.4-0.4-0.4-0.4l-1.8-1.4c0-0.4,0-0.4,0-0.4l2.9-4.3l1.2-6.8l1.8-4.3l1.4-6.2l3.3-15.1v-1.8l-3.3-2.1V335l1.5-1.1
		l23.7,2.2c2.9,1.8,4.4,5,3.3,7.6l-1.2,9.7l-3.2,3.9l-2.9,1.1l-2.2,0.4c-0.3,0.3-0.3,0.3-0.3,0.3l-0.4,1.8l0.7,1.5l1.5,1.1l7.9,12.9
		l0.3,3.6l2.2,2.5l-1.4,1.8l-1.8,0.4H177.8L177.8,384.8z"/>
	<path class="st0" d="M186.8,383.3l-2.5-0.4l-1.8-1.8l2.5-3.6l6.5-16.2l7.6-18.4l-2.5-1.8v-1.4l1.4-1.4l7.9-0.4l1.5,2.2l2.8,6.4
		l2.9,5.1l0.4,2.5l5.4,11.9l4.3,6.5l2.5,5c0,0.4,0,0.4,0,0.4l0.4,1.8c-0.4,0.3-0.4,0.3-0.4,0.3l-6,1.8l-2.2-1.8l0.4-1.1l-5.8-12.9
		c-0.3,0-0.3,0-0.3,0l-15.1,0.3c0,0.4,0,0.4,0,0.4l-4,9.6l-0.4,1.8c0.4,0.4,0.4,0.4,0.4,0.4l0.4,1.8l-2.2,2.5l-3.2,0.4H186.8
		L186.8,383.3z"/>
	<path class="st0" d="M245.8,377.6l-1.1-0.4c0-0.3,0-0.3,0-0.3l3.6-6.5h1.7l-0.7-7.6l-1.4-1.8l-1.4-3.9l-0.4-1.8l-1.4-2.5
		c-3.7-4.7-9-5.8-13.3-9l-5.1-1.1l-2.5,1.1H222l-1.8-1.8c0-2.6,3.3-3.3,4.7-4.4l7.6-2.5l1.4-0.3l2.5-0.4l1.8,1.4c0,0.4,0,0.4,0,0.4
		l-1.8,4l9,5.4c0.4,0,0.4,0,0.4,0l1.1-2.9l1.1-2.2l0.4-3.6h-1.4c-0.4-0.3-0.4-0.3-0.4-0.3l-1.8-1.1v-2.2l2.9-2.4l7.6-3.2
		c0.3,0,0.3,0,0.3,0l3,1v2.2l-3.6,3.6l-3.2,11.2c-0.4,4.3,0.4,8.6,3.6,12.9l2.5,7.6c0,0.3,0,0.3,0,0.3c0.3,0.8,0.3,0.8,0.3,0.8
		l3-1.1l2.9-0.4l2.2,1.8v1.8l-10.5,6.1l-3.5,0.4l-1.1,0.6l-2.1,0.4l-2.2,1.1L245.8,377.6L245.8,377.6z"/>
	<path class="st0" d="M128.2,372.5l-5.4-2.9l-2.9-2.2c0-0.3,0-0.3,0-0.3c0.3-1.1,0.3-1.1,0.3-1.1l2.6-1.5c3.2-1.8,3.6-5,5.4-7.2
		l0.7-2.1l10.4-17.7l1.5-3.6c0-0.7,0-0.7,0-0.7L139,330l0.7-1.8c3.2-1.8,6.1-1.1,9.7,1.1l1.4,3.6l-3.9,2.5l-7.2,12.6l-5.1,9.3
		l-0.7,2.9c-2.5,3.3-3.9,5.8-2.5,9c0.4,0.7,0.4,0.7,0.4,0.7l0.3,1.8l-1.1,1.1h-2.1L128.2,372.5L128.2,372.5z"/>
	<path class="st0" d="M273.2,366.8l-0.4-1.8c3.6-6.8,1.1-13,2.2-19.8c1.4-5.8,0.7-11.2,1-16.6l-4.6-1.8l-0.8-1v-1.5
		c3.3-3.2,7.6-5.4,11.6-6.8l4.3-0.8l1.1,1.1v2.2l-1.1,1.4l6.1,7.2l5.4,6.5l8.3,7.6l1.4,1.1l2.2-0.4c0.3,0,0.3,0,0.3,0l4,0.4l0.7,2.8
		l-11.5,9l-2.5-1.8v-2.8l2.1-2.6l-6-6.8l-1.1-0.4l-1.4,1.1l-2.2,0.4l-5.4,3.6l-6.1,3.9l-0.4,9l1.4,1.1l1.8,1.2v1.8
		c-1.2,2.2-3.6,2.4-5,2.9l-1.5,0.7l-3.2,0.4L273.2,366.8L273.2,366.8z"/>
	<path class="st1" d="M201.6,360.6h-1.2l-0.6-4l2.5-5l0.4-1.1c0.3-0.4,0.3-0.4,0.3-0.4c0.4-0.7,0.4-0.7,0.4-0.7l2.9,1.5l2.9,8.6
		c-0.4,0.4-0.4,0.4-0.4,0.4l-6.5,1L201.6,360.6L201.6,360.6z"/>
	<path class="st0" d="M100.8,357l-6.6-2.2l-1.4-1.4l0.3-2.5l1.8-1.1l1.8-0.4c0.4-0.3,0.4-0.3,0.4-0.3l5.4-8.7l4.7-6.8l2.1-2.9
		l5.1-10.5l0.3-2.1l-1.8-2.2c0-0.7,0-0.7,0-0.7c0.4-0.6,0.4-0.6,0.4-0.6l3.6-1.2l14.5,8.7l2.5,2.5c0.7,6.5-3.6,13.7-10.1,19.4
		l-8.2-1.4l-1.8-1.5l-2.2-1.4l-1.2,0.4c-3.2,2.5-3.9,6.4-6.5,9.7l-1,5.7l-1.5,1.8L100.8,357L100.8,357z"/>
	<path class="st1" d="M167.8,353.7l-7.2-0.7c-0.4-0.3-0.4-0.3-0.4-0.3l-1.7-1.1l2.4-11.9l9.7-0.7c4.7,3.2,1.1,7.9,1.8,11.9l-2.1,2.8
		l-1.8,0.4L167.8,353.7L167.8,353.7z"/>
	<path class="st1" d="M281.8,341.9L281.8,341.9l0.6-7.6v-5.8c0.4-0.3,0.4-0.3,0.4-0.3l6.1,4.7l2.5,2.8c0,0.4,0,0.4,0,0.4l-6,4
		l-3,2.1L281.8,341.9L281.8,341.9z"/>
	<path class="st1" d="M120.2,338.6L120.2,338.6l-5.7-3.9l0.7-2.9l3.6-8.3l1.4-1.4l1.8-0.4c0.4,0.4,0.4,0.4,0.4,0.4l4.7,3.9
		c0,0.4,0,0.4,0,0.4c0,4.3-2.2,8.3-5.8,12.2H120.2L120.2,338.6z"/>
	<path class="st1" d="M75.6,323.6c-6.6,0-13.2-6.2-20.6-4.8L39.6,320c-3.3,0.1-6.7,0.1-10.1,0.2c0-5.5,16.8-37.1,16.8-41.6
		c4.8-2.8,40.3,6,44,7.5l0.3,1.8l-2.4,7.6c0.4,0.4,0.4,0.4,0.4,0.4c0.6,1.4,4.5,3.2,6.1,3.9c1.3,1.9,1.9,9.1-3.6,5.4
		C85.5,306.1,77.3,323.6,75.6,323.6L75.6,323.6z"/>
	<polygon class="st2" points="291.5,277 293,277 292.2,277 291.5,277 	"/>
	<path class="st0" d="M155.9,272.4v-2.2l1.1-1.4l3.2-0.4c0.4,0.4,0.4,0.4,0.4,0.4l0.3,1.8c-0.3,0.3-0.3,0.3-0.3,0.3l-4,1.5H155.9
		L155.9,272.4z"/>
	<polygon class="st0" points="185.4,252.2 185.8,248.2 187.1,246.4 189.4,245.7 190.8,245.4 192.2,247.5 191.5,249.3 188.9,251.8 
		186.1,252.2 185.4,252.2 	"/>
	<path class="st0" d="M197.6,250.8L197.6,250.8l-0.7-2.2l2.2-2.4h3.2c0.4,0.3,0.4,0.3,0.4,0.3L202,250l-1.1,0.8h-2.5H197.6
		L197.6,250.8z"/>
	<path class="st3" d="M163.1,221.2l-1.5-0.3l1.1-10.5l14.4-41l1.1-2.4h1.2c2.1,8.3,0.3,18,1.8,26.6l-0.4,5.8l2.5,19.8
		c-0.3,0.3-0.3,0.3-0.3,0.3l-1.1,1.5h-13.8l-4.3,0.3H163.1L163.1,221.2z"/>
	<path class="st3" d="M202.7,221h-12.6c-0.4-0.4-0.4-0.4-0.4-0.4c-1.4-15.1,7.2-29.4,9.4-44.5l1.1,0.3l1,13.7l2.2,25.1l1.7,2.2
		c0.4,0,0.4,0,0.4,0l2.1,0.3l1.8-2.5l0.4-6.5l6.8-27.9l1.5-1.5c1,12.3,2.5,25.8,1.8,38.4l-1.1,2.2l-15.5,1.2H202.7L202.7,221z"/>
	<path class="st3" d="M133.6,220.5l0.3-7.9l2.2-8.6c3.9-13.3,8.3-26.2,15.1-39.5c0.4-0.8,0.4-0.8,0.4-0.8c0.7-0.3,0.7-0.3,0.7-0.3
		l0.7,2.1l0.4,5.1l0.3,1.4c-1.8,15.1-1.1,30.2-1.4,45.4c-0.4,0.6-0.4,0.6-0.4,0.6l-1.1,1.4l-16.5,1.5L133.6,220.5L133.6,220.5z"/>
	<path class="st4" d="M190.1,128.4c-0.9-9.4,1-20.5-8.1-26.6c6.6-6,8.6-30.8,24.8-18.6c6.2,29-2.9,14.8-12.5,37.5l-2.9,4.2v3.9h-0.6
		L190.1,128.4L190.1,128.4z"/>
	<path class="st4" d="M207.6,283.4c-5.9-1.1-13.1-2.4-18.1-5.6l-0.6-2.9c-25.2,0.9-57.3,21.2-58.3-21.6c11.4-8,24.3-5.4,37.4-4.3
		c0-0.8,0-1.5,0-2.2c-5.8-4.8-40.7-4.2-47.5-1.8c-1.4,0-6.7-3.2-8.3-4c-0.3-7.6,0.7-22.8,11.2-22.8l3.5,4.1c-3.3,3.3-4.8,2-6.2,6.9
		c31.5-9.2,65.4-2.7,98.1-4.7l0.3,0.6c3.9,0,7.8,1.4,11.6,2.2c0-0.7,0.6-2.1,0.7-2.9l-6.1-4.8l0.7-7.2c10.1,5.4,17.4,11.1,19.4,23.4
		c-11.2,11.3-22.1,10.2-37.1,10.2c-6.2,6.5,28.5,4.8,31.7,9c0.4,7.2-5.2,16.3-8.6,23C224.8,279.9,214,283,207.6,283.4L207.6,283.4z"
		/>
	<path class="st4" d="M250.2,243.9c-0.6-8.8,0.9-12.2,9.6-14.4l1.9,4.5l5.7,10.6c-8.1,4-7.1,3.5-14.6,2.9h-0.5L250.2,243.9
		L250.2,243.9z"/>
	<path class="st4" d="M158,199.4l-0.7-9.4l2.2-11.9c1.1-2.5,4.7-5,4.3-7.5l1.1-2.5l1.4-4.4l0.4-2.1l4.3-3.6l4.7-1.2
		c3.9-2.4,8.6-7.8,10.4-11.4l1.1-1.5h1.2l-0.4,3.3l1.8,9.9l3.3,2.7l3.2,3.6l0.4,3.6l-3.3,2.9c-0.3,0.3-0.3,0.3-0.3,0.3l-5.8,23.4
		l-1.4,0.7c-1.1-2.8-1.1-5.7-0.8-8.6v-2.2c0-0.3,0-0.3,0-0.3l0.4-7.9l-0.4-7.2l-0.3-1.5l-1.5-7.9c-0.3-0.4-0.3-0.4-0.3-0.4l-4-1.2
		l-2.9,3.6l-0.3,2.2l-1.1,3.3l-1.8,1.4l-3.2,0.4l-4,9.3c-1.4,7.2-5.8,14.8-6.1,22H158L158,199.4z"/>
	<path class="st4" d="M206.5,180.3c-1.4-2.2-2.1-5-1.4-7.6l-1.4-7.2c0.3-0.3,0.3-0.3,0.3-0.3l2.2-1.5l2.9,0.8
		c0.3,0.3,0.3,0.3,0.3,0.3c2.5,1.8,2.5,3.3,3,5.1l-1.8,1.4l-2.2,1.4l-0.7,8L206.5,180.3L206.5,180.3z"/>
	<path class="st3" d="M158.8,168.8L158.8,168.8c-0.8-0.4-0.8-0.4-0.8-0.4c-0.3-1.1-0.3-1.1-0.3-1.1l0.7-9.7c0.4,0,0.4,0,0.4,0
		l4.3,3.2l-3.6,8.1H158.8L158.8,168.8z"/>
	<path class="st3" d="M203,159.8L203,159.8l-4.3-2.2l-4.7-4.7l-0.7-5.7c1.5-12.3,0-24.5,10.1-36.9c4.7-1.4,8.3-2.4,12.5,1.5l3.2,3.6
		l2.2,10.1v21.9l4.2-6.1c0.7,0,0.7,0,0.7,0c1.1,0,1.1,0,1.1,0c0,5.4-0.7,10.8-7.2,15.8c-0.6,0.4-0.6,0.4-0.6,0.4l-2.2,0.4l2.9-8.1
		l-3.9,3.3l-2.9,2.5l-7.9,3.6l-1.8,0.4H203L203,159.8z"/>
	<path class="st3" d="M169.6,152.9c-5.8-0.3-8-7.5-9.8-12c-0.3-11.1,1.8-25.2,15.2-33.3l3.2-1.5c0.4,0,0.4,0,0.4,0l2.1-0.3
		c2.9,1.4,2.9,4.2,3.6,6.3c1.5,13,4.3,27-7.5,38.7l-6.5,2.4L169.6,152.9L169.6,152.9z"/>
	<path class="st0" d="M173.9,140.3l-1.8-1.8l1.4-4.8c0.4-0.3,0.4-0.3,0.4-0.3l1.4-2.2l2.9-0.3c0.4,0.3,0.4,0.3,0.4,0.3l0.7,6
		l-4.7,3.3L173.9,140.3L173.9,140.3z"/>
	<path class="st1" d="M319.2,138.5c-1.1-2.1-7.1-12.1-7.4-15.3c2.5-2.9,7.8,11.4,8.6,13.2l-0.4,2.1H319.2L319.2,138.5z"/>
	<path class="st0" d="M202,134.2h-1.1c-0.4-0.4-0.4-0.4-0.4-0.4c-1.1-2.7-0.3-5.4,1.5-7.8l2.7-0.3l1.8,1.4c1.1,2.2-0.3,4.3-2.1,6.5
		l-1.7,1.1L202,134.2L202,134.2z"/>
	<polygon class="st2" points="29.4,129.5 29.4,129.5 32.7,129.2 30.2,129.5 29.4,129.5 	"/>
	<path class="st0" d="M85.7,125.9h-1.5c-2.1-5-7.9-8.6-12.2-11.5c-6-5.4-11.9-13.7-18.7-16.2l5-9.4h1.4c0.4,0.4,0.4,0.4,0.4,0.4
		c0.4,0.7,0.4,0.7,0.4,0.7l-0.4,4.2l10.1,9l0.7,1.5l15.9,12.2l4.3,0.4c0.3,0.3,0.3,0.3,0.3,0.3l0.4,1.8l-5.5,6.9L85.7,125.9
		L85.7,125.9z"/>
	<path class="st0" d="M314.9,103.4c-0.8-4.3,4.2-8.8,7.6-12l3.2-4v-1.8c0.4-0.4,0.4-0.4,0.4-0.4l1.5-0.1c2.8-2.1,6.8-7.3,9.6-7.7
		c3.6-1.4,6.2-0.3,9.4,2.2l4,4.8c0.9,0.9,1.9,1.9,2.8,2.7c1.4,2.7,1.3,4.8-0.3,6.9c-0.9,0.9-1.7,1.7-2.5,2.5l-5.4,5.4v2.5
		c-0.4,0.4-2.7,0.4-2.7,0.4l-1.9,2c-3.4,2.3-8.1,10.1-14.4,8.3C323.8,114.5,315.4,108.6,314.9,103.4L314.9,103.4z"/>
	<path class="st0" d="M97.2,111.2L97.2,111.2l-1.1-1.5c-0.3-0.3-0.3-0.3-0.3-0.3l-1.8-1.5l-14.4-14c-2.2-4-5.4-6.9-9.4-9L76,77
		l13.3,5.7l20.1,8.3c-7.2-7.6-15.8-19.1-24.1-23.8l-1.8-2.4l1.5-1.4l2.5-2.2l2.9-0.3l3.2,3.9c7.6,3.6,10.7,12.6,18.4,17.7l2.5,3.6
		l2.1,2.7l1.8,3.3c0,0.3,0,0.3,0,0.3l0.4,2.2l-3.2,4.7l-1.1,1.8c-0.4,0-0.4,0-0.4,0c-9.3-2.4-18.3-9.4-27.7-11.9l2.5,3.2l1.5,1.8
		l0.7,1.2l7.5,7.2c0.4,0,0.4,0,0.4,0l3.2,0.6c0.4,0.4,0.4,0.4,0.4,0.4l1.4,1.1c0.4,2.1-2.5,5.4-4.6,6.1c-1.1,0.4-1.1,0.4-1.1,0.4
		H97.2L97.2,111.2z"/>
	<path class="st1" d="M321.3,103.6l-0.3-2.5l4-5.5l4.5-4.5c0.7,0.2,2.5-0.3,2.5-0.3c0.2-0.7,0-1.8-0.4-2.4c1.4-1.7,3.6-4.9,7.2-7
		c0.7-0.4,0.7-0.4,0.7-0.4c0.7-0.3,0.7-0.3,0.7-0.3l3.3,1.8l1.4,1.8l2.5,2.7c1.3,1.7,2.2,2.9,0.7,4.8l-2.1,2.2l-8.7,7.2l-6.4,7.2
		c-0.7,0.6-1.3,1.5-2.2,1.8C325,108.4,324.7,108.1,321.3,103.6L321.3,103.6z"/>
	<path class="st0" d="M303.4,98.9l-5.8-4.8l-0.3-2.4l1.4-5.7l2.5-20.7h-1l-11.9,15.3l-0.7,2.7c-0.4,0.4-0.4,0.4-0.4,0.4l-1.4,2.2
		c-2.9,0.3-5.8-1.5-8.7-4.8c-0.3-0.6-0.3-0.6-0.3-0.6c0.3-1.2,0.3-1.2,0.3-1.2l5.8-0.7c6.5-6.9,10.8-13.5,15.8-20.2
		c2.9-2.5,3.2-5,4-7.6C303,50,303,50,303,50l3.3-0.9l4.7,4l0.4,3.6l-2.5,3.2c-0.7,7.6-2.9,14.1-2.5,21.3c5.7-4,9-11.2,13.7-16.6
		l0.7-2.5l1.8-2.2l4.7,1.2c0.3,0.4,0.3,0.4,0.3,0.4l1.5,1.8l2.1,2.5l0.4,1.1c-0.4,0.3-0.4,0.3-0.4,0.3c-0.3,1.2-0.3,1.2-0.3,1.2
		l-5.4-1.4l-1.4,0.3l-10.1,14.4l-7.2,11.7l-0.3,4.5l-2.2,1.5L303.4,98.9L303.4,98.9z"/>
	<path class="st0" d="M217.7,96.8l2.3-5.1l-0.1-1.5c-1.5-1.5-3.4-2.2-5.3-4.2v-1.8l3.1-3l-3.9-3.3c0-5.6,7.5-8.6,11.4-11.4
		c-14.7,1.4-15.8,0.3-20.7,14.4c-2.2,0-5-0.8-7.1-1.2l-0.4-0.9c7.2-8.6,11.2-16.6,25.7-16.6c-2.3-3.3-2.9-6.3-5.3-9.4
		c0.6-0.5,1.2-1.4,1.7-2.1c1,0,2.6-0.5,3.6-0.6c0.9,0.7,2.3,4.2,2.9,5.4c9.1,14.8,11-9.2,11.2-13c-4.3-3.2-8.7-0.4-13-5.4
		c1.3-19.5,14.3-23.3,25.6-6.5c-0.6,0.5-1,1.2-1.4,1.8h-5.4c0-10.2-13-11.7-13,2.2c23.8,7.5,10.1,9.4,10.1,27.3l6.1,2.2l2.2,1.8
		l-1.8,4.3c-6.3,0.8-22.5-2.1-24.2,6.5c2.5,1.6,6.1,2.4,6.1,5.4c-6,4.2-4.1,4.3-5,12.6c-0.4,0.4-0.4,0.4-0.4,0.4l-4.3,1.8H217.7
		L217.7,96.8z"/>
	<path class="st0" d="M135.4,83.1L135.4,83.1c-0.8-0.4-0.8-0.4-0.8-0.4l0.4-5.4l-5.8-10.8l-0.3-2.1l-4-7.6l-0.3-2.2l-1.8-3.2
		l-0.4-1.8l-2.2-4.7c-0.3-0.3-0.3-0.3-0.3-0.3l-2.2-1.2c-0.3,0.3-0.3,0.3-0.3,0.3l-1.8,0.4c-0.4-0.4-0.4-0.4-0.4-0.4l4.2-5.7h5.8
		c0,0.3,0,0.3,0,0.3c-0.7,5.8,3.6,11.2,6.8,16.6l8.7-2.5c0.3-0.4,0.3-0.4,0.3-0.4l0.4-2.1l-1.8-5.1l-4.3-7.2c0-0.3,0-0.3,0-0.3
		c-0.4-2.2,1.8-3.6,3.2-4c0.6-0.4,0.6-0.4,0.6-0.4c0.7,0.4,0.7,0.4,0.7,0.4l7.2,14.8l10.5,24l-1.8,1.4l-2.2,0.4l-1.1,0.3l-2.5-4.2
		l-0.3-2.1l-6.5-9.4l-7.6,1.4l-0.7,3.6l7.2,12.3l-0.4,3.9l-2.8,3l-2.9,0.4H135.4L135.4,83.1z"/>
	<path class="st0" d="M273.9,77.3L262.4,73l-4.4-4.3c0-4.2,1.5-8.7,4.4-13.2l5-9.4l0.7-2.5l6.9-7.2c5.8-1.1,12.2,1.2,17.2,5.7v3.3
		l-4.6,1.2c-0.4-0.4-0.4-0.4-0.4-0.4l-0.7-3.2l-8.3-2.9l-3.2,2.9l-6.2,12.6l-3.9,9c0,3.2,3.6,6.3,6.1,6.8c1.1,0,1.1,0,1.1,0l2.1,0.4
		c0.4-0.4,0.4-0.4,0.4-0.4c0.7-0.4,0.7-0.4,0.7-0.4c1.7-2.4,4.7-5.4,4.7-7.8l-1.4-1.8h-6.2l-0.7-2.1c0.4-0.4,0.4-0.4,0.4-0.4l5-3.2
		c0.4,0,0.4,0,0.4,0l5,1.8l4.8,4.3L280.7,73l-3.2,4.3c-0.4,0-0.4,0-0.4,0h-2.5H273.9L273.9,77.3z"/>
	<path class="st0" d="M114.1,72.3c-8.4-2.9-0.9-20.6,7.2-10.8c2.9,3.2,0.5,6.3-0.6,8.9C119.4,71.2,115.4,72.9,114.1,72.3L114.1,72.3
		z"/>
	<path class="st0" d="M163.8,68.7l-2.2-0.4c-5.7-4.3-5.4-8.4-6.8-12.6c-0.4-1.2-0.4-1.2-0.4-1.2l-3.2-2.7c0-7.6-6.5-14.8,0.4-22.5
		c5.4-2.4,10.4-3.9,15.4-2.1l4.4,3.9l0.3,1.8l1.8,4.5l0.4,2.1c0.3,0.4,0.3,0.4,0.3,0.4l2.9,1.8V25.8c0.4-0.3,0.4-0.3,0.4-0.3
		c5-7.8,12.9-4.7,19.1-6.5l2.5,0.7l1.4,1.5l0.4,2.1l2.5,2.9c-0.4,0.4-0.4,0.4-0.4,0.4c-0.3,0.6-0.3,0.6-0.3,0.6l-3.6,1.4l-5.1,1.1
		c-0.3-0.4-0.3-0.4-0.3-0.4l1.1-4.2l-10.5-0.3c-0.3,0.3-0.3,0.3-0.3,0.3c-0.8,0.4-0.8,0.4-0.8,0.4c0,10.4,0,21,5.1,31.3l7.5,1.1
		c0.4-0.4,0.4-0.4,0.4-0.4l1.4-0.7l0.4-4c0.4-0.3,0.4-0.3,0.4-0.3c0.3-0.7,0.3-0.7,0.3-0.7c0.7-0.4,0.7-0.4,0.7-0.4l1.8-0.4l2.5,1.8
		l1.8,1.8v1.8c-5,4.5-9.7,7.6-14.7,6.9l-7.6-2.5l-1.8-2.7c-0.3,0.4-0.3,0.4-0.3,0.4l-0.7,3.2c-3.3,7.2-10.5,5.8-15.5,7.2L163.8,68.7
		L163.8,68.7z"/>
	<path class="st1" d="M166.7,63.6l-1.8-0.6l-3.6-3.9l-1.8-6.9c-3.3-6.6-6.1-12.9-5.8-19.4l1.8-2.2l9,1.1l1.5,1.8l2.1,6.5l0.4,3.9
		l-2.5,3v1.1l3.2,1.1l1.2-0.4l2.5,3.6l1.1,5.1l0.7,2.1l0.4,1.5c-0.4,0.3-0.4,0.3-0.4,0.3l-7.2,2.9L166.7,63.6L166.7,63.6z"/>
	<path class="st0" d="M248,62.2l-1.1-1.1c0-0.3,0-0.3,0-0.3l3.2-11.9l1.9-4.3l5-10.2l-2.2-4l0.4-1.8c3.9-0.7,7.2,0,10.8,2.4
		c0.4,0.9,0.4,0.9,0.4,0.9l0.4,1.8l-3.3,1.4c-2.1,1.1-2.4,3.6-3.2,5l-5.8,14.1l-1.4,1.8l-0.7,2.1l-3.6,4.5L248,62.2L248,62.2z"/>
	<path class="st1" d="M177.8,50.3l-0.3-3.2c-0.4-0.4-0.4-0.4-0.4-0.4c0.4-0.7,0.4-0.7,0.4-0.7l1.1,4.3H177.8L177.8,50.3z"/>
	<path class="st0" d="M209.4,44.6c-1.5-0.7-3.5-1.9-4.3-3.3c-2.3-8.6,7-12.5,12.1-3.9c0.9,2.2-0.6,4.6-2.2,5.5
		C213.7,44.3,211.5,44.6,209.4,44.6L209.4,44.6z"/>
	<path class="st1" d="M210.1,39.9L210.1,39.9c-0.3-0.6-1.1-1.2-0.5-2.1c0.4-0.5,1.2-1.2,2-1.2c1.1,1.1,0.7,1.3,0.7,2.7
		C211.8,39.9,211,39.9,210.1,39.9L210.1,39.9z"/>
	<polygon class="st5" points="251.2,5.7 251.2,5.7 251.9,5.7 251.2,5.7 	"/>
	<line class="st6" x1="181.1" y1="192.9" x2="181.1" y2="189.7"/>
	<path class="st1" d="M383.7,312.8h-3.3c-12.6-2.2-19.4-3-33.1-3c-0.3-0.4-1.1-1.7-1.1-1.7l-2.2-2.2l-4-2.5l-3.3-3.6l-0.6-5
		l-1.4-1.5c-3.3-3.6-7.2-0.3-10.8-4.6l-4.7-3.3c-5.4-2.5-10.5-3.9-15.9-2.5c-7.5,6.1-14.4,8.6-21.2,6.6c-1.1-0.4-1.1-0.4-1.1-0.4
		l-1.8-1.8v-3.6l3.5-3.6l3.3-1.1l2.2-0.3l1.4-0.7l6.1-2.2l2.1-0.6l15.2-1.8l1.4,0.6h2.2h1.4c14.4-1.1,28.8,0.4,43.2,3.6l3.2,2.2
		l2.2,12.2l2.9,3.6l0.7,0.7l2.5,3.6c1.1,1.8,3.3,4.7,5.8,5.4l3.6,4.3l1.1,0.8l0.7,2.5H383.7L383.7,312.8z"/>
	<path class="st1" d="M138.6,314.8l-1.4-0.7l-1.8-0.7l-4-2.2l-7.9-4.3v-1.1c0.3-0.3,0.3-0.3,0.3-0.3h1.5l2.5,0.3l3.6,2.9h2.2
		l6.4,0.7c0.4-0.3,0.4-0.3,0.4-0.3l1.4-0.7l0.4-3.6c-0.4-0.4-0.4-0.4-0.4-0.4L140,304l-1.8,1.8l-16.2-6.4l-1-1.1l-0.4-2.5l1.4-1.8
		c6.9-0.8,13.4,3.2,20.2,9.3l1.8,5.1l-1.1,1.8l-0.3,2.8l-2.2,1.8h-1.1H138.6L138.6,314.8z"/>
	<path class="st7" d="M100.4,294.3c-10.2-4.7-4-8.9,2.2-17.6c0-23.5,37.1,6.5-1.4,17.6H100.4L100.4,294.3z"/>
	<path class="st7" d="M291.9,251.1c-5.8-3.2-14.8-7.2-22.3-6.1c-4-1.8-5.4-4.7-7.2-7.6l-1.4-3.2v-6.8l7.9-11.2l10.5-10.1l1.8-2.5
		l5.7-6l0.8-1.4h1l-3.6,8.6l-4.3,5.4c0,8.3-6.5,15.8-4.3,23.7c4.7,6.9,11.5,10.5,17.3,15.2l1.4,1c0,0.4,0,0.4,0,0.4l-2.5,0.7H291.9
		L291.9,251.1z"/>
	<path class="st1" d="M85,146.1c0.9-13.8,23.5-21.4,21.6-8.7C98.4,138.7,90.1,146.1,85,146.1L85,146.1z"/>
	<path class="st2" d="M213.2,97.5c-1.5-10.8-0.7-9.4-8.6-17.3c2.9-14,6.6-12.8,20.3-14.4c-2.5,4-8.3,5-10.8,10.1l1.1,3.2l2.5,2.2
		l-2.5,2.5c0,0.9,0,1.9,0,2.9c4.7,1.7,4,0.9,5.7,5.4C219.9,94.2,215.9,98.6,213.2,97.5L213.2,97.5z"/>
	<path class="st8" d="M116.4,63.4c0.9,0,1.5,0.9,1.5,2.2c0,1.2-0.6,2.2-1.5,2.2c-0.9,0-1.5-0.9-1.5-2.2
		C114.8,64.4,115.5,63.4,116.4,63.4L116.4,63.4z"/>
	<path class="st7" d="M268.1,305.8c-3.8-0.3-7.4-4.6-10.7-7.9c-0.7-0.3-0.7-0.3-0.7-0.3c-5.8-1.8-5.8-7.2-6.1-10.8
		c-2.9-6.5-8.3-6.9-12.3-7.2l-4.6-4.7l0.7-3.6l1.1-1.2l5.4,0.7l1.8,2.2l1.4,1.4c5.8,1.8,16.2-0.7,19.1,7.9l1.1,4.7l3.8,10.5l2.9,4.3
		l0.4,2.4c-0.4,0.4-0.4,0.4-0.4,0.4l-2.2,1H268.1L268.1,305.8z"/>
</g>
</svg>
